<?xml version="1.0" encoding="utf-8"?>
<!-- Svg Vector Icons : http://www.onlinewebfonts.com/icon -->
<!DOCTYPE svg PUBLIC "-//W3C//DTD SVG 1.1//EN" "http://www.w3.org/Graphics/SVG/1.1/DTD/svg11.dtd">
<svg version="1.1" xmlns="http://www.w3.org/2000/svg" xmlns:xlink="http://www.w3.org/1999/xlink" x="0px" y="0px" viewBox="0 0 256 256" enable-background="new 0 0 256 256" xml:space="preserve">
<metadata> Svg Vector Icons : http://www.onlinewebfonts.com/icon </metadata>
<g><g><path fill="#000000" d="M208.6,12l-54.6,31.8c-3.2,1.9-4.3,6-2.5,9.3s6,4.4,9.2,2.5l54.6-31.7c3.2-1.9,4.3-6,2.5-9.3C216,11.3,211.9,10.2,208.6,12z"/><path fill="#000000" d="M47.2,9.8l55,31.8c3.3,1.9,4.4,6,2.5,9.3c-1.9,3.3-6,4.4-9.3,2.5l-55-31.8c-3.3-1.9-4.4-6-2.5-9.3C39.7,9,43.9,7.9,47.2,9.8z"/><path fill="#000000" d="M80.3,210.8c6.3,0,11.3,5.1,11.3,11.3s-5.1,11.3-11.3,11.3c-6.3,0-11.3-5.1-11.3-11.3S74.1,210.8,80.3,210.8 M80.3,197.2c-13.8,0-25,11.2-25,25c0,13.8,11.2,25,25,25c13.8,0,25-11.2,25-25C105.3,208.4,94.1,197.2,80.3,197.2L80.3,197.2z"/><path fill="#000000" d="M175.6,210.8c6.3,0,11.3,5.1,11.3,11.3s-5.1,11.3-11.3,11.3c-6.3,0-11.3-5.1-11.3-11.3S169.4,210.8,175.6,210.8 M175.6,197.2c-13.8,0-25,11.2-25,25c0,13.8,11.2,25,25,25c13.8,0,25-11.2,25-25C200.6,208.4,189.4,197.2,175.6,197.2L175.6,197.2z"/><path fill="#000000" d="M177.9,70.1H78.1c-20,0-36.3,16.3-36.3,36.3v45.4c0,20,16.3,36.3,36.3,36.3h99.8c20,0,36.3-16.3,36.3-36.3v-45.4C214.2,86.4,197.9,70.1,177.9,70.1z M82.6,133.7c-7.5,0-13.6-6.1-13.6-13.6c0-7.5,6.1-13.6,13.6-13.6s13.6,6.1,13.6,13.6C96.2,127.6,90.1,133.7,82.6,133.7z M173.4,133.7c-7.5,0-13.6-6.1-13.6-13.6c0-7.5,6.1-13.6,13.6-13.6c7.5,0,13.6,6.1,13.6,13.6C187,127.6,180.9,133.7,173.4,133.7z"/><path fill="#000000" d="M200.6,38.4H55.4C30.3,38.4,10,58.7,10,83.8v90.8c0,25.1,20.3,45.4,45.4,45.4h145.2c25.1,0,45.4-20.3,45.4-45.4V83.8C246,58.7,225.7,38.4,200.6,38.4z M223.3,151.8c0,25.1-20.3,45.4-45.4,45.4H78.1c-25.1,0-45.4-20.3-45.4-45.4v-45.4C32.7,81.4,53,61,78.1,61h99.8c25.1,0,45.4,20.3,45.4,45.4V151.8L223.3,151.8z"/></g></g>
</svg>