<!DOCTYPE svg PUBLIC "-//W3C//DTD SVG 1.1//EN" "http://www.w3.org/Graphics/SVG/1.1/DTD/svg11.dtd">

<!-- Uploaded to: SVG Repo, www.svgrepo.com, Transformed by: SVG Repo Mixer Tools -->
<svg width="256px" height="256px" viewBox="0 0 24 24" fill="none" xmlns="http://www.w3.org/2000/svg">

<g id="SVGRepo_bgCarrier" stroke-width="0"/>

<g id="SVGRepo_tracerCarrier" stroke-linecap="round" stroke-linejoin="round"/>

<g id="SVGRepo_iconCarrier"> <path d="M3 8H9.5C10.8807 8 12 6.88071 12 5.5C12 4.11929 10.8807 3 9.5 3C8.11929 3 7 4.11929 7 5.5V5.85714" stroke="#3a065d" stroke-width="1.5" stroke-linecap="round"/> <path d="M4 14H18.5C20.433 14 22 15.567 22 17.5C22 19.433 20.433 21 18.5 21C16.567 21 15 19.433 15 17.5V17" stroke="#3a065d" stroke-width="1.5" stroke-linecap="round"/> <path d="M2 11H18.5C20.433 11 22 9.433 22 7.5C22 5.567 20.433 4 18.5 4C16.567 4 15 5.567 15 7.5V8" stroke="#3a065d" stroke-width="1.5" stroke-linecap="round"/> </g>

</svg>