<?xml version="1.0" encoding="utf-8"?>
<!DOCTYPE svg PUBLIC "-//W3C//DTD SVG 1.1//EN" "http://www.w3.org/Graphics/SVG/1.1/DTD/svg11.dtd">
<svg version="1.1" id="Layer_1" xmlns="http://www.w3.org/2000/svg" xmlns:xlink="http://www.w3.org/1999/xlink" x="0px" y="0px"
width="2320px" height="2320px" viewBox="0 0 2320 2320" enable-background="new 0 0 2320 2320" xml:space="preserve">
<rect x="0" y="0" width="2320" height="2320" fill="rgb(16,16,16)" /><g transform="translate(160,160)"><g transform="translate(800,0) scale(0.8,0.8)"><g transform="" style="fill: rgb(59, 59, 59);">
<rect width="100" height="100"/>
</g></g><g transform="translate(880,0) scale(0.8,0.8)"><g transform="" style="fill: rgb(59, 59, 59);">
<rect width="100" height="100"/>
</g></g><g transform="translate(1040,0) scale(0.8,0.8)"><g transform="" style="fill: rgb(59, 59, 59);">
<rect width="100" height="100"/>
</g></g><g transform="translate(1120,0) scale(0.8,0.8)"><g transform="" style="fill: rgb(59, 59, 59);">
<rect width="100" height="100"/>
</g></g><g transform="translate(1200,0) scale(0.8,0.8)"><g transform="" style="fill: rgb(59, 59, 59);">
<rect width="100" height="100"/>
</g></g><g transform="translate(720,80) scale(0.8,0.8)"><g transform="" style="fill: rgb(59, 59, 59);">
<rect width="100" height="100"/>
</g></g><g transform="translate(800,80) scale(0.8,0.8)"><g transform="" style="fill: rgb(59, 59, 59);">
<rect width="100" height="100"/>
</g></g><g transform="translate(1120,80) scale(0.8,0.8)"><g transform="" style="fill: rgb(59, 59, 59);">
<rect width="100" height="100"/>
</g></g><g transform="translate(1200,80) scale(0.8,0.8)"><g transform="" style="fill: rgb(59, 59, 59);">
<rect width="100" height="100"/>
</g></g><g transform="translate(720,160) scale(0.8,0.8)"><g transform="" style="fill: rgb(59, 59, 59);">
<rect width="100" height="100"/>
</g></g><g transform="translate(800,160) scale(0.8,0.8)"><g transform="" style="fill: rgb(59, 59, 59);">
<rect width="100" height="100"/>
</g></g><g transform="translate(960,160) scale(0.8,0.8)"><g transform="" style="fill: rgb(59, 59, 59);">
<rect width="100" height="100"/>
</g></g><g transform="translate(1120,160) scale(0.8,0.8)"><g transform="" style="fill: rgb(59, 59, 59);">
<rect width="100" height="100"/>
</g></g><g transform="translate(1200,160) scale(0.8,0.8)"><g transform="" style="fill: rgb(59, 59, 59);">
<rect width="100" height="100"/>
</g></g><g transform="translate(720,240) scale(0.8,0.8)"><g transform="" style="fill: rgb(59, 59, 59);">
<rect width="100" height="100"/>
</g></g><g transform="translate(800,240) scale(0.8,0.8)"><g transform="" style="fill: rgb(59, 59, 59);">
<rect width="100" height="100"/>
</g></g><g transform="translate(880,240) scale(0.8,0.8)"><g transform="" style="fill: rgb(59, 59, 59);">
<rect width="100" height="100"/>
</g></g><g transform="translate(1120,320) scale(0.8,0.8)"><g transform="" style="fill: rgb(59, 59, 59);">
<rect width="100" height="100"/>
</g></g><g transform="translate(1200,320) scale(0.8,0.8)"><g transform="" style="fill: rgb(59, 59, 59);">
<rect width="100" height="100"/>
</g></g><g transform="translate(1280,320) scale(0.8,0.8)"><g transform="" style="fill: rgb(59, 59, 59);">
<rect width="100" height="100"/>
</g></g><g transform="translate(640,400) scale(0.8,0.8)"><g transform="" style="fill: rgb(59, 59, 59);">
<rect width="100" height="100"/>
</g></g><g transform="translate(720,400) scale(0.8,0.8)"><g transform="" style="fill: rgb(59, 59, 59);">
<rect width="100" height="100"/>
</g></g><g transform="translate(880,400) scale(0.8,0.8)"><g transform="" style="fill: rgb(59, 59, 59);">
<rect width="100" height="100"/>
</g></g><g transform="translate(960,400) scale(0.8,0.8)"><g transform="" style="fill: rgb(59, 59, 59);">
<rect width="100" height="100"/>
</g></g><g transform="translate(1200,400) scale(0.8,0.8)"><g transform="" style="fill: rgb(59, 59, 59);">
<rect width="100" height="100"/>
</g></g><g transform="translate(1280,400) scale(0.8,0.8)"><g transform="" style="fill: rgb(59, 59, 59);">
<rect width="100" height="100"/>
</g></g><g transform="translate(640,480) scale(0.8,0.8)"><g transform="" style="fill: rgb(59, 59, 59);">
<rect width="100" height="100"/>
</g></g><g transform="translate(800,480) scale(0.8,0.8)"><g transform="" style="fill: rgb(59, 59, 59);">
<rect width="100" height="100"/>
</g></g><g transform="translate(960,480) scale(0.8,0.8)"><g transform="" style="fill: rgb(59, 59, 59);">
<rect width="100" height="100"/>
</g></g><g transform="translate(1120,480) scale(0.8,0.8)"><g transform="" style="fill: rgb(59, 59, 59);">
<rect width="100" height="100"/>
</g></g><g transform="translate(1280,480) scale(0.8,0.8)"><g transform="" style="fill: rgb(59, 59, 59);">
<rect width="100" height="100"/>
</g></g><g transform="translate(720,560) scale(0.8,0.8)"><g transform="" style="fill: rgb(59, 59, 59);">
<rect width="100" height="100"/>
</g></g><g transform="translate(960,560) scale(0.8,0.8)"><g transform="" style="fill: rgb(59, 59, 59);">
<rect width="100" height="100"/>
</g></g><g transform="translate(1120,560) scale(0.8,0.8)"><g transform="" style="fill: rgb(59, 59, 59);">
<rect width="100" height="100"/>
</g></g><g transform="translate(1280,560) scale(0.8,0.8)"><g transform="" style="fill: rgb(59, 59, 59);">
<rect width="100" height="100"/>
</g></g><g transform="translate(0,640) scale(0.8,0.8)"><g transform="" style="fill: rgb(59, 59, 59);">
<rect width="100" height="100"/>
</g></g><g transform="translate(240,640) scale(0.8,0.8)"><g transform="" style="fill: rgb(59, 59, 59);">
<rect width="100" height="100"/>
</g></g><g transform="translate(400,640) scale(0.8,0.8)"><g transform="" style="fill: rgb(59, 59, 59);">
<rect width="100" height="100"/>
</g></g><g transform="translate(480,640) scale(0.8,0.8)"><g transform="" style="fill: rgb(59, 59, 59);">
<rect width="100" height="100"/>
</g></g><g transform="translate(640,640) scale(0.8,0.8)"><g transform="" style="fill: rgb(59, 59, 59);">
<rect width="100" height="100"/>
</g></g><g transform="translate(720,640) scale(0.8,0.8)"><g transform="" style="fill: rgb(59, 59, 59);">
<rect width="100" height="100"/>
</g></g><g transform="translate(960,640) scale(0.8,0.8)"><g transform="" style="fill: rgb(59, 59, 59);">
<rect width="100" height="100"/>
</g></g><g transform="translate(1120,640) scale(0.8,0.8)"><g transform="" style="fill: rgb(59, 59, 59);">
<rect width="100" height="100"/>
</g></g><g transform="translate(1280,640) scale(0.8,0.8)"><g transform="" style="fill: rgb(59, 59, 59);">
<rect width="100" height="100"/>
</g></g><g transform="translate(1360,640) scale(0.8,0.8)"><g transform="" style="fill: rgb(59, 59, 59);">
<rect width="100" height="100"/>
</g></g><g transform="translate(1520,640) scale(0.8,0.8)"><g transform="" style="fill: rgb(59, 59, 59);">
<rect width="100" height="100"/>
</g></g><g transform="translate(0,720) scale(0.8,0.8)"><g transform="" style="fill: rgb(59, 59, 59);">
<rect width="100" height="100"/>
</g></g><g transform="translate(80,720) scale(0.8,0.8)"><g transform="" style="fill: rgb(59, 59, 59);">
<rect width="100" height="100"/>
</g></g><g transform="translate(240,720) scale(0.8,0.8)"><g transform="" style="fill: rgb(59, 59, 59);">
<rect width="100" height="100"/>
</g></g><g transform="translate(400,720) scale(0.8,0.8)"><g transform="" style="fill: rgb(59, 59, 59);">
<rect width="100" height="100"/>
</g></g><g transform="translate(560,720) scale(0.8,0.8)"><g transform="" style="fill: rgb(59, 59, 59);">
<rect width="100" height="100"/>
</g></g><g transform="translate(800,720) scale(0.8,0.8)"><g transform="" style="fill: rgb(59, 59, 59);">
<rect width="100" height="100"/>
</g></g><g transform="translate(1040,720) scale(0.8,0.8)"><g transform="" style="fill: rgb(59, 59, 59);">
<rect width="100" height="100"/>
</g></g><g transform="translate(1120,720) scale(0.8,0.8)"><g transform="" style="fill: rgb(59, 59, 59);">
<rect width="100" height="100"/>
</g></g><g transform="translate(1280,720) scale(0.8,0.8)"><g transform="" style="fill: rgb(59, 59, 59);">
<rect width="100" height="100"/>
</g></g><g transform="translate(1360,720) scale(0.8,0.8)"><g transform="" style="fill: rgb(59, 59, 59);">
<rect width="100" height="100"/>
</g></g><g transform="translate(1440,720) scale(0.8,0.8)"><g transform="" style="fill: rgb(59, 59, 59);">
<rect width="100" height="100"/>
</g></g><g transform="translate(1920,720) scale(0.8,0.8)"><g transform="" style="fill: rgb(59, 59, 59);">
<rect width="100" height="100"/>
</g></g><g transform="translate(80,800) scale(0.8,0.8)"><g transform="" style="fill: rgb(59, 59, 59);">
<rect width="100" height="100"/>
</g></g><g transform="translate(320,800) scale(0.8,0.8)"><g transform="" style="fill: rgb(59, 59, 59);">
<rect width="100" height="100"/>
</g></g><g transform="translate(480,800) scale(0.8,0.8)"><g transform="" style="fill: rgb(59, 59, 59);">
<rect width="100" height="100"/>
</g></g><g transform="translate(960,800) scale(0.8,0.8)"><g transform="" style="fill: rgb(59, 59, 59);">
<rect width="100" height="100"/>
</g></g><g transform="translate(1040,800) scale(0.8,0.8)"><g transform="" style="fill: rgb(59, 59, 59);">
<rect width="100" height="100"/>
</g></g><g transform="translate(1120,800) scale(0.8,0.8)"><g transform="" style="fill: rgb(59, 59, 59);">
<rect width="100" height="100"/>
</g></g><g transform="translate(1840,800) scale(0.8,0.8)"><g transform="" style="fill: rgb(59, 59, 59);">
<rect width="100" height="100"/>
</g></g><g transform="translate(1920,800) scale(0.8,0.8)"><g transform="" style="fill: rgb(59, 59, 59);">
<rect width="100" height="100"/>
</g></g><g transform="translate(80,880) scale(0.8,0.8)"><g transform="" style="fill: rgb(59, 59, 59);">
<rect width="100" height="100"/>
</g></g><g transform="translate(320,880) scale(0.8,0.8)"><g transform="" style="fill: rgb(59, 59, 59);">
<rect width="100" height="100"/>
</g></g><g transform="translate(400,880) scale(0.8,0.8)"><g transform="" style="fill: rgb(59, 59, 59);">
<rect width="100" height="100"/>
</g></g><g transform="translate(560,880) scale(0.8,0.8)"><g transform="" style="fill: rgb(59, 59, 59);">
<rect width="100" height="100"/>
</g></g><g transform="translate(800,880) scale(0.8,0.8)"><g transform="" style="fill: rgb(59, 59, 59);">
<rect width="100" height="100"/>
</g></g><g transform="translate(880,880) scale(0.8,0.8)"><g transform="" style="fill: rgb(59, 59, 59);">
<rect width="100" height="100"/>
</g></g><g transform="translate(1040,880) scale(0.8,0.8)"><g transform="" style="fill: rgb(59, 59, 59);">
<rect width="100" height="100"/>
</g></g><g transform="translate(1120,880) scale(0.8,0.8)"><g transform="" style="fill: rgb(59, 59, 59);">
<rect width="100" height="100"/>
</g></g><g transform="translate(1280,880) scale(0.8,0.8)"><g transform="" style="fill: rgb(59, 59, 59);">
<rect width="100" height="100"/>
</g></g><g transform="translate(1360,880) scale(0.8,0.8)"><g transform="" style="fill: rgb(59, 59, 59);">
<rect width="100" height="100"/>
</g></g><g transform="translate(1600,880) scale(0.8,0.8)"><g transform="" style="fill: rgb(59, 59, 59);">
<rect width="100" height="100"/>
</g></g><g transform="translate(0,960) scale(0.8,0.8)"><g transform="" style="fill: rgb(59, 59, 59);">
<rect width="100" height="100"/>
</g></g><g transform="translate(80,960) scale(0.8,0.8)"><g transform="" style="fill: rgb(59, 59, 59);">
<rect width="100" height="100"/>
</g></g><g transform="translate(240,960) scale(0.8,0.8)"><g transform="" style="fill: rgb(59, 59, 59);">
<rect width="100" height="100"/>
</g></g><g transform="translate(400,960) scale(0.8,0.8)"><g transform="" style="fill: rgb(59, 59, 59);">
<rect width="100" height="100"/>
</g></g><g transform="translate(480,960) scale(0.8,0.8)"><g transform="" style="fill: rgb(59, 59, 59);">
<rect width="100" height="100"/>
</g></g><g transform="translate(560,960) scale(0.8,0.8)"><g transform="" style="fill: rgb(59, 59, 59);">
<rect width="100" height="100"/>
</g></g><g transform="translate(800,960) scale(0.8,0.8)"><g transform="" style="fill: rgb(59, 59, 59);">
<rect width="100" height="100"/>
</g></g><g transform="translate(960,960) scale(0.8,0.8)"><g transform="" style="fill: rgb(59, 59, 59);">
<rect width="100" height="100"/>
</g></g><g transform="translate(1040,960) scale(0.8,0.8)"><g transform="" style="fill: rgb(59, 59, 59);">
<rect width="100" height="100"/>
</g></g><g transform="translate(1200,960) scale(0.8,0.8)"><g transform="" style="fill: rgb(59, 59, 59);">
<rect width="100" height="100"/>
</g></g><g transform="translate(1280,960) scale(0.8,0.8)"><g transform="" style="fill: rgb(59, 59, 59);">
<rect width="100" height="100"/>
</g></g><g transform="translate(1360,960) scale(0.8,0.8)"><g transform="" style="fill: rgb(59, 59, 59);">
<rect width="100" height="100"/>
</g></g><g transform="translate(1440,960) scale(0.8,0.8)"><g transform="" style="fill: rgb(59, 59, 59);">
<rect width="100" height="100"/>
</g></g><g transform="translate(1680,960) scale(0.8,0.8)"><g transform="" style="fill: rgb(59, 59, 59);">
<rect width="100" height="100"/>
</g></g><g transform="translate(1840,960) scale(0.8,0.8)"><g transform="" style="fill: rgb(59, 59, 59);">
<rect width="100" height="100"/>
</g></g><g transform="translate(1920,960) scale(0.8,0.8)"><g transform="" style="fill: rgb(59, 59, 59);">
<rect width="100" height="100"/>
</g></g><g transform="translate(80,1040) scale(0.8,0.8)"><g transform="" style="fill: rgb(59, 59, 59);">
<rect width="100" height="100"/>
</g></g><g transform="translate(240,1040) scale(0.8,0.8)"><g transform="" style="fill: rgb(59, 59, 59);">
<rect width="100" height="100"/>
</g></g><g transform="translate(320,1040) scale(0.8,0.8)"><g transform="" style="fill: rgb(59, 59, 59);">
<rect width="100" height="100"/>
</g></g><g transform="translate(400,1040) scale(0.8,0.8)"><g transform="" style="fill: rgb(59, 59, 59);">
<rect width="100" height="100"/>
</g></g><g transform="translate(720,1040) scale(0.8,0.8)"><g transform="" style="fill: rgb(59, 59, 59);">
<rect width="100" height="100"/>
</g></g><g transform="translate(800,1040) scale(0.8,0.8)"><g transform="" style="fill: rgb(59, 59, 59);">
<rect width="100" height="100"/>
</g></g><g transform="translate(880,1040) scale(0.8,0.8)"><g transform="" style="fill: rgb(59, 59, 59);">
<rect width="100" height="100"/>
</g></g><g transform="translate(1040,1040) scale(0.8,0.8)"><g transform="" style="fill: rgb(59, 59, 59);">
<rect width="100" height="100"/>
</g></g><g transform="translate(1280,1040) scale(0.8,0.8)"><g transform="" style="fill: rgb(59, 59, 59);">
<rect width="100" height="100"/>
</g></g><g transform="translate(1440,1040) scale(0.8,0.8)"><g transform="" style="fill: rgb(59, 59, 59);">
<rect width="100" height="100"/>
</g></g><g transform="translate(1520,1040) scale(0.8,0.8)"><g transform="" style="fill: rgb(59, 59, 59);">
<rect width="100" height="100"/>
</g></g><g transform="translate(1680,1040) scale(0.8,0.8)"><g transform="" style="fill: rgb(59, 59, 59);">
<rect width="100" height="100"/>
</g></g><g transform="translate(1760,1040) scale(0.8,0.8)"><g transform="" style="fill: rgb(59, 59, 59);">
<rect width="100" height="100"/>
</g></g><g transform="translate(1920,1040) scale(0.8,0.8)"><g transform="" style="fill: rgb(59, 59, 59);">
<rect width="100" height="100"/>
</g></g><g transform="translate(0,1120) scale(0.8,0.8)"><g transform="" style="fill: rgb(59, 59, 59);">
<rect width="100" height="100"/>
</g></g><g transform="translate(320,1120) scale(0.8,0.8)"><g transform="" style="fill: rgb(59, 59, 59);">
<rect width="100" height="100"/>
</g></g><g transform="translate(480,1120) scale(0.8,0.8)"><g transform="" style="fill: rgb(59, 59, 59);">
<rect width="100" height="100"/>
</g></g><g transform="translate(640,1120) scale(0.8,0.8)"><g transform="" style="fill: rgb(59, 59, 59);">
<rect width="100" height="100"/>
</g></g><g transform="translate(800,1120) scale(0.8,0.8)"><g transform="" style="fill: rgb(59, 59, 59);">
<rect width="100" height="100"/>
</g></g><g transform="translate(880,1120) scale(0.8,0.8)"><g transform="" style="fill: rgb(59, 59, 59);">
<rect width="100" height="100"/>
</g></g><g transform="translate(960,1120) scale(0.8,0.8)"><g transform="" style="fill: rgb(59, 59, 59);">
<rect width="100" height="100"/>
</g></g><g transform="translate(1280,1120) scale(0.8,0.8)"><g transform="" style="fill: rgb(59, 59, 59);">
<rect width="100" height="100"/>
</g></g><g transform="translate(1440,1120) scale(0.8,0.8)"><g transform="" style="fill: rgb(59, 59, 59);">
<rect width="100" height="100"/>
</g></g><g transform="translate(1520,1120) scale(0.8,0.8)"><g transform="" style="fill: rgb(59, 59, 59);">
<rect width="100" height="100"/>
</g></g><g transform="translate(1600,1120) scale(0.8,0.8)"><g transform="" style="fill: rgb(59, 59, 59);">
<rect width="100" height="100"/>
</g></g><g transform="translate(1760,1120) scale(0.8,0.8)"><g transform="" style="fill: rgb(59, 59, 59);">
<rect width="100" height="100"/>
</g></g><g transform="translate(1920,1120) scale(0.8,0.8)"><g transform="" style="fill: rgb(59, 59, 59);">
<rect width="100" height="100"/>
</g></g><g transform="translate(80,1200) scale(0.8,0.8)"><g transform="" style="fill: rgb(59, 59, 59);">
<rect width="100" height="100"/>
</g></g><g transform="translate(560,1200) scale(0.8,0.8)"><g transform="" style="fill: rgb(59, 59, 59);">
<rect width="100" height="100"/>
</g></g><g transform="translate(800,1200) scale(0.8,0.8)"><g transform="" style="fill: rgb(59, 59, 59);">
<rect width="100" height="100"/>
</g></g><g transform="translate(880,1200) scale(0.8,0.8)"><g transform="" style="fill: rgb(59, 59, 59);">
<rect width="100" height="100"/>
</g></g><g transform="translate(1040,1200) scale(0.8,0.8)"><g transform="" style="fill: rgb(59, 59, 59);">
<rect width="100" height="100"/>
</g></g><g transform="translate(1120,1200) scale(0.8,0.8)"><g transform="" style="fill: rgb(59, 59, 59);">
<rect width="100" height="100"/>
</g></g><g transform="translate(1360,1200) scale(0.8,0.8)"><g transform="" style="fill: rgb(59, 59, 59);">
<rect width="100" height="100"/>
</g></g><g transform="translate(1600,1200) scale(0.8,0.8)"><g transform="" style="fill: rgb(59, 59, 59);">
<rect width="100" height="100"/>
</g></g><g transform="translate(1840,1200) scale(0.8,0.8)"><g transform="" style="fill: rgb(59, 59, 59);">
<rect width="100" height="100"/>
</g></g><g transform="translate(0,1280) scale(0.8,0.8)"><g transform="" style="fill: rgb(59, 59, 59);">
<rect width="100" height="100"/>
</g></g><g transform="translate(80,1280) scale(0.8,0.8)"><g transform="" style="fill: rgb(59, 59, 59);">
<rect width="100" height="100"/>
</g></g><g transform="translate(240,1280) scale(0.8,0.8)"><g transform="" style="fill: rgb(59, 59, 59);">
<rect width="100" height="100"/>
</g></g><g transform="translate(400,1280) scale(0.8,0.8)"><g transform="" style="fill: rgb(59, 59, 59);">
<rect width="100" height="100"/>
</g></g><g transform="translate(480,1280) scale(0.8,0.8)"><g transform="" style="fill: rgb(59, 59, 59);">
<rect width="100" height="100"/>
</g></g><g transform="translate(560,1280) scale(0.8,0.8)"><g transform="" style="fill: rgb(59, 59, 59);">
<rect width="100" height="100"/>
</g></g><g transform="translate(880,1280) scale(0.8,0.8)"><g transform="" style="fill: rgb(59, 59, 59);">
<rect width="100" height="100"/>
</g></g><g transform="translate(1280,1280) scale(0.8,0.8)"><g transform="" style="fill: rgb(59, 59, 59);">
<rect width="100" height="100"/>
</g></g><g transform="translate(1360,1280) scale(0.8,0.8)"><g transform="" style="fill: rgb(59, 59, 59);">
<rect width="100" height="100"/>
</g></g><g transform="translate(1440,1280) scale(0.8,0.8)"><g transform="" style="fill: rgb(59, 59, 59);">
<rect width="100" height="100"/>
</g></g><g transform="translate(1520,1280) scale(0.8,0.8)"><g transform="" style="fill: rgb(59, 59, 59);">
<rect width="100" height="100"/>
</g></g><g transform="translate(1600,1280) scale(0.8,0.8)"><g transform="" style="fill: rgb(59, 59, 59);">
<rect width="100" height="100"/>
</g></g><g transform="translate(1680,1280) scale(0.8,0.8)"><g transform="" style="fill: rgb(59, 59, 59);">
<rect width="100" height="100"/>
</g></g><g transform="translate(1760,1280) scale(0.8,0.8)"><g transform="" style="fill: rgb(59, 59, 59);">
<rect width="100" height="100"/>
</g></g><g transform="translate(640,1360) scale(0.8,0.8)"><g transform="" style="fill: rgb(59, 59, 59);">
<rect width="100" height="100"/>
</g></g><g transform="translate(720,1360) scale(0.8,0.8)"><g transform="" style="fill: rgb(59, 59, 59);">
<rect width="100" height="100"/>
</g></g><g transform="translate(800,1360) scale(0.8,0.8)"><g transform="" style="fill: rgb(59, 59, 59);">
<rect width="100" height="100"/>
</g></g><g transform="translate(880,1360) scale(0.8,0.8)"><g transform="" style="fill: rgb(59, 59, 59);">
<rect width="100" height="100"/>
</g></g><g transform="translate(1040,1360) scale(0.8,0.8)"><g transform="" style="fill: rgb(59, 59, 59);">
<rect width="100" height="100"/>
</g></g><g transform="translate(1120,1360) scale(0.8,0.8)"><g transform="" style="fill: rgb(59, 59, 59);">
<rect width="100" height="100"/>
</g></g><g transform="translate(1200,1360) scale(0.8,0.8)"><g transform="" style="fill: rgb(59, 59, 59);">
<rect width="100" height="100"/>
</g></g><g transform="translate(1280,1360) scale(0.8,0.8)"><g transform="" style="fill: rgb(59, 59, 59);">
<rect width="100" height="100"/>
</g></g><g transform="translate(1600,1360) scale(0.8,0.8)"><g transform="" style="fill: rgb(59, 59, 59);">
<rect width="100" height="100"/>
</g></g><g transform="translate(1680,1360) scale(0.8,0.8)"><g transform="" style="fill: rgb(59, 59, 59);">
<rect width="100" height="100"/>
</g></g><g transform="translate(1920,1360) scale(0.8,0.8)"><g transform="" style="fill: rgb(59, 59, 59);">
<rect width="100" height="100"/>
</g></g><g transform="translate(720,1440) scale(0.8,0.8)"><g transform="" style="fill: rgb(59, 59, 59);">
<rect width="100" height="100"/>
</g></g><g transform="translate(960,1440) scale(0.8,0.8)"><g transform="" style="fill: rgb(59, 59, 59);">
<rect width="100" height="100"/>
</g></g><g transform="translate(1200,1440) scale(0.8,0.8)"><g transform="" style="fill: rgb(59, 59, 59);">
<rect width="100" height="100"/>
</g></g><g transform="translate(1280,1440) scale(0.8,0.8)"><g transform="" style="fill: rgb(59, 59, 59);">
<rect width="100" height="100"/>
</g></g><g transform="translate(1440,1440) scale(0.8,0.8)"><g transform="" style="fill: rgb(59, 59, 59);">
<rect width="100" height="100"/>
</g></g><g transform="translate(1600,1440) scale(0.8,0.8)"><g transform="" style="fill: rgb(59, 59, 59);">
<rect width="100" height="100"/>
</g></g><g transform="translate(1680,1440) scale(0.8,0.8)"><g transform="" style="fill: rgb(59, 59, 59);">
<rect width="100" height="100"/>
</g></g><g transform="translate(1840,1440) scale(0.8,0.8)"><g transform="" style="fill: rgb(59, 59, 59);">
<rect width="100" height="100"/>
</g></g><g transform="translate(1920,1440) scale(0.8,0.8)"><g transform="" style="fill: rgb(59, 59, 59);">
<rect width="100" height="100"/>
</g></g><g transform="translate(640,1520) scale(0.8,0.8)"><g transform="" style="fill: rgb(59, 59, 59);">
<rect width="100" height="100"/>
</g></g><g transform="translate(800,1520) scale(0.8,0.8)"><g transform="" style="fill: rgb(59, 59, 59);">
<rect width="100" height="100"/>
</g></g><g transform="translate(1120,1520) scale(0.8,0.8)"><g transform="" style="fill: rgb(59, 59, 59);">
<rect width="100" height="100"/>
</g></g><g transform="translate(1280,1520) scale(0.8,0.8)"><g transform="" style="fill: rgb(59, 59, 59);">
<rect width="100" height="100"/>
</g></g><g transform="translate(1600,1520) scale(0.8,0.8)"><g transform="" style="fill: rgb(59, 59, 59);">
<rect width="100" height="100"/>
</g></g><g transform="translate(1680,1520) scale(0.8,0.8)"><g transform="" style="fill: rgb(59, 59, 59);">
<rect width="100" height="100"/>
</g></g><g transform="translate(1760,1520) scale(0.8,0.8)"><g transform="" style="fill: rgb(59, 59, 59);">
<rect width="100" height="100"/>
</g></g><g transform="translate(1840,1520) scale(0.8,0.8)"><g transform="" style="fill: rgb(59, 59, 59);">
<rect width="100" height="100"/>
</g></g><g transform="translate(1920,1520) scale(0.8,0.8)"><g transform="" style="fill: rgb(59, 59, 59);">
<rect width="100" height="100"/>
</g></g><g transform="translate(720,1600) scale(0.8,0.8)"><g transform="" style="fill: rgb(59, 59, 59);">
<rect width="100" height="100"/>
</g></g><g transform="translate(800,1600) scale(0.8,0.8)"><g transform="" style="fill: rgb(59, 59, 59);">
<rect width="100" height="100"/>
</g></g><g transform="translate(880,1600) scale(0.8,0.8)"><g transform="" style="fill: rgb(59, 59, 59);">
<rect width="100" height="100"/>
</g></g><g transform="translate(1040,1600) scale(0.8,0.8)"><g transform="" style="fill: rgb(59, 59, 59);">
<rect width="100" height="100"/>
</g></g><g transform="translate(1120,1600) scale(0.8,0.8)"><g transform="" style="fill: rgb(59, 59, 59);">
<rect width="100" height="100"/>
</g></g><g transform="translate(1280,1600) scale(0.8,0.8)"><g transform="" style="fill: rgb(59, 59, 59);">
<rect width="100" height="100"/>
</g></g><g transform="translate(1360,1600) scale(0.8,0.8)"><g transform="" style="fill: rgb(59, 59, 59);">
<rect width="100" height="100"/>
</g></g><g transform="translate(1440,1600) scale(0.8,0.8)"><g transform="" style="fill: rgb(59, 59, 59);">
<rect width="100" height="100"/>
</g></g><g transform="translate(1520,1600) scale(0.8,0.8)"><g transform="" style="fill: rgb(59, 59, 59);">
<rect width="100" height="100"/>
</g></g><g transform="translate(1600,1600) scale(0.8,0.8)"><g transform="" style="fill: rgb(59, 59, 59);">
<rect width="100" height="100"/>
</g></g><g transform="translate(1680,1600) scale(0.8,0.8)"><g transform="" style="fill: rgb(59, 59, 59);">
<rect width="100" height="100"/>
</g></g><g transform="translate(1840,1600) scale(0.8,0.8)"><g transform="" style="fill: rgb(59, 59, 59);">
<rect width="100" height="100"/>
</g></g><g transform="translate(640,1680) scale(0.8,0.8)"><g transform="" style="fill: rgb(59, 59, 59);">
<rect width="100" height="100"/>
</g></g><g transform="translate(1040,1680) scale(0.8,0.8)"><g transform="" style="fill: rgb(59, 59, 59);">
<rect width="100" height="100"/>
</g></g><g transform="translate(1120,1680) scale(0.8,0.8)"><g transform="" style="fill: rgb(59, 59, 59);">
<rect width="100" height="100"/>
</g></g><g transform="translate(1520,1680) scale(0.8,0.8)"><g transform="" style="fill: rgb(59, 59, 59);">
<rect width="100" height="100"/>
</g></g><g transform="translate(1600,1680) scale(0.8,0.8)"><g transform="" style="fill: rgb(59, 59, 59);">
<rect width="100" height="100"/>
</g></g><g transform="translate(1680,1680) scale(0.8,0.8)"><g transform="" style="fill: rgb(59, 59, 59);">
<rect width="100" height="100"/>
</g></g><g transform="translate(1760,1680) scale(0.8,0.8)"><g transform="" style="fill: rgb(59, 59, 59);">
<rect width="100" height="100"/>
</g></g><g transform="translate(720,1760) scale(0.8,0.8)"><g transform="" style="fill: rgb(59, 59, 59);">
<rect width="100" height="100"/>
</g></g><g transform="translate(800,1760) scale(0.8,0.8)"><g transform="" style="fill: rgb(59, 59, 59);">
<rect width="100" height="100"/>
</g></g><g transform="translate(960,1760) scale(0.8,0.8)"><g transform="" style="fill: rgb(59, 59, 59);">
<rect width="100" height="100"/>
</g></g><g transform="translate(1120,1760) scale(0.8,0.8)"><g transform="" style="fill: rgb(59, 59, 59);">
<rect width="100" height="100"/>
</g></g><g transform="translate(1200,1760) scale(0.8,0.8)"><g transform="" style="fill: rgb(59, 59, 59);">
<rect width="100" height="100"/>
</g></g><g transform="translate(1520,1760) scale(0.8,0.8)"><g transform="" style="fill: rgb(59, 59, 59);">
<rect width="100" height="100"/>
</g></g><g transform="translate(1600,1760) scale(0.8,0.8)"><g transform="" style="fill: rgb(59, 59, 59);">
<rect width="100" height="100"/>
</g></g><g transform="translate(1760,1760) scale(0.8,0.8)"><g transform="" style="fill: rgb(59, 59, 59);">
<rect width="100" height="100"/>
</g></g><g transform="translate(1920,1760) scale(0.8,0.8)"><g transform="" style="fill: rgb(59, 59, 59);">
<rect width="100" height="100"/>
</g></g><g transform="translate(880,1840) scale(0.8,0.8)"><g transform="" style="fill: rgb(59, 59, 59);">
<rect width="100" height="100"/>
</g></g><g transform="translate(1040,1840) scale(0.8,0.8)"><g transform="" style="fill: rgb(59, 59, 59);">
<rect width="100" height="100"/>
</g></g><g transform="translate(1120,1840) scale(0.8,0.8)"><g transform="" style="fill: rgb(59, 59, 59);">
<rect width="100" height="100"/>
</g></g><g transform="translate(1280,1840) scale(0.8,0.8)"><g transform="" style="fill: rgb(59, 59, 59);">
<rect width="100" height="100"/>
</g></g><g transform="translate(1440,1840) scale(0.8,0.8)"><g transform="" style="fill: rgb(59, 59, 59);">
<rect width="100" height="100"/>
</g></g><g transform="translate(1680,1840) scale(0.8,0.8)"><g transform="" style="fill: rgb(59, 59, 59);">
<rect width="100" height="100"/>
</g></g><g transform="translate(640,1920) scale(0.8,0.8)"><g transform="" style="fill: rgb(59, 59, 59);">
<rect width="100" height="100"/>
</g></g><g transform="translate(1040,1920) scale(0.8,0.8)"><g transform="" style="fill: rgb(59, 59, 59);">
<rect width="100" height="100"/>
</g></g><g transform="translate(1120,1920) scale(0.8,0.8)"><g transform="" style="fill: rgb(59, 59, 59);">
<rect width="100" height="100"/>
</g></g><g transform="translate(1200,1920) scale(0.8,0.8)"><g transform="" style="fill: rgb(59, 59, 59);">
<rect width="100" height="100"/>
</g></g><g transform="translate(1280,1920) scale(0.8,0.8)"><g transform="" style="fill: rgb(59, 59, 59);">
<rect width="100" height="100"/>
</g></g><g transform="translate(1440,1920) scale(0.8,0.8)"><g transform="" style="fill: rgb(59, 59, 59);">
<rect width="100" height="100"/>
</g></g><g transform="translate(1520,1920) scale(0.8,0.8)"><g transform="" style="fill: rgb(59, 59, 59);">
<rect width="100" height="100"/>
</g></g><g transform="translate(1840,1920) scale(0.8,0.8)"><g transform="" style="fill: rgb(59, 59, 59);">
<rect width="100" height="100"/>
</g></g><g transform="translate(1920,1920) scale(0.8,0.8)"><g transform="" style="fill: rgb(59, 59, 59);">
<rect width="100" height="100"/>
</g></g><g transform="translate(0,0) scale(5.6, 5.6)"><g transform="" style="fill: rgb(59, 59, 59);">
<g>
	<rect x="15" y="15" style="fill:none;" width="70" height="70"/>
	<path d="M85,0H15H0v15v70v15h15h70h15V85V15V0H85z M85,85H15V15h70V85z"/>
</g>
</g></g><g transform="translate(1440,0) scale(5.6, 5.6)"><g transform="" style="fill: rgb(59, 59, 59);">
<g>
	<rect x="15" y="15" style="fill:none;" width="70" height="70"/>
	<path d="M85,0H15H0v15v70v15h15h70h15V85V15V0H85z M85,85H15V15h70V85z"/>
</g>
</g></g><g transform="translate(0,1440) scale(5.6, 5.6)"><g transform="" style="fill: rgb(59, 59, 59);">
<g>
	<rect x="15" y="15" style="fill:none;" width="70" height="70"/>
	<path d="M85,0H15H0v15v70v15h15h70h15V85V15V0H85z M85,85H15V15h70V85z"/>
</g>
</g></g><g transform="translate(160,160) scale(2.4, 2.4)"><g transform="" style="fill: rgb(59, 59, 59);">
<rect width="100" height="100"/>
</g></g><g transform="translate(1600,160) scale(2.4, 2.4)"><g transform="" style="fill: rgb(59, 59, 59);">
<rect width="100" height="100"/>
</g></g><g transform="translate(160,1600) scale(2.4, 2.4)"><g transform="" style="fill: rgb(59, 59, 59);">
<rect width="100" height="100"/>
</g></g></g></svg>